HIERARCHY
ROOT Hips
{
 OFFSET 0.000000 0.000000 0.000000
 CHANNELS 6 Xposition Yposition Zposition Yrotation Xrotation Zrotation
 JOINT Chest
 {
  OFFSET 0.000000 9.585900 0.002600
  CHANNELS 3 Yrotation Xrotation Zrotation
  JOINT Chest2
  {
   OFFSET 0.000000 9.601200 -0.005300
   CHANNELS 3 Yrotation Xrotation Zrotation
   JOINT Chest3
   {
    OFFSET 0.000000 9.561800 0.000000
    CHANNELS 3 Yrotation Xrotation Zrotation
    JOINT Chest4
    {
     OFFSET 0.000000 9.552100 0.000000
     CHANNELS 3 Yrotation Xrotation Zrotation
     JOINT Neck
     {
      OFFSET 0.000000 14.453000 0.000000
      CHANNELS 3 Yrotation Xrotation Zrotation
      JOINT Head
      {
       OFFSET 0.000000 8.936500 -0.011300
       CHANNELS 3 Yrotation Xrotation Zrotation
       End Site
       {
        OFFSET 0.000000 17.073600 -0.006000
       }
      }
     }
     JOINT RightCollar
     {
      OFFSET -2.921100 9.558500 0.000000
      CHANNELS 3 Yrotation Xrotation Zrotation
      JOINT RightShoulder
      {
       OFFSET -13.519700 0.000000 0.000000
       CHANNELS 3 Yrotation Xrotation Zrotation
       JOINT RightElbow
       {
        OFFSET 0.000000 -29.696600 0.000000
        CHANNELS 3 Yrotation Xrotation Zrotation
        JOINT RightWrist
        {
         OFFSET 0.000000 -24.004700 0.000000
         CHANNELS 3 Yrotation Xrotation Zrotation
         End Site
         {
          OFFSET 0.000000 -17.728500 0.000000
         }
        }
       }
      }
     }
     JOINT LeftCollar
     {
      OFFSET 2.921100 9.558500 0.000000
      CHANNELS 3 Yrotation Xrotation Zrotation
      JOINT LeftShoulder
      {
       OFFSET 13.519700 0.000000 0.000000
       CHANNELS 3 Yrotation Xrotation Zrotation
       JOINT LeftElbow
       {
        OFFSET 0.000000 -29.696600 0.000000
        CHANNELS 3 Yrotation Xrotation Zrotation
        JOINT LeftWrist
        {
         OFFSET 0.000000 -24.004700 0.000000
         CHANNELS 3 Yrotation Xrotation Zrotation
         End Site
         {
          OFFSET 0.000000 -17.728500 0.000000
         }
        }
       }
      }
     }
    }
   }
  }
 }
 JOINT RightHip
 {
  OFFSET -7.771700 -0.012900 -0.001300
  CHANNELS 3 Yrotation Xrotation Zrotation
  JOINT RightKnee
  {
   OFFSET 0.000000 -40.869800 0.001200
   CHANNELS 3 Yrotation Xrotation Zrotation
   JOINT RightAnkle
   {
    OFFSET 0.000000 -39.717900 0.002100
    CHANNELS 3 Yrotation Xrotation Zrotation
    JOINT RightToe
    {
     OFFSET 0.000000 -4.965400 11.033500
     CHANNELS 3 Yrotation Xrotation Zrotation
     End Site
     {
      OFFSET 0.000000 -1.423100 5.872300
     }
    }
   }
  }
 }
 JOINT LeftHip
 {
  OFFSET 7.771700 -0.012900 -0.001300
  CHANNELS 3 Yrotation Xrotation Zrotation
  JOINT LeftKnee
  {
   OFFSET 0.000000 -40.869800 0.001200
   CHANNELS 3 Yrotation Xrotation Zrotation
   JOINT LeftAnkle
   {
    OFFSET 0.000000 -39.717900 0.002100
    CHANNELS 3 Yrotation Xrotation Zrotation
    JOINT LeftToe
    {
     OFFSET 0.000000 -4.965400 11.033500
     CHANNELS 3 Yrotation Xrotation Zrotation
     End Site
     {
      OFFSET 0.000000 -1.423100 5.872300
     }
    }
   }
  }
 }
}
MOTION
Frames: 16
Frame Time: 0.008333
0.000000 85.388000 0.000000 0.000000 -5.767877 0.000000 0.000000 11.653817 0.000000 0.000000 -5.885947 0.000000 0.000000 -0.000000 0.000000 0.000000 -0.000000 0.000000 0.000000 12.528835 0.000000 0.000000 0.711642 0.000000 0.000000 -0.000000 0.000000 0.000000 0.000000 -90.000000 0.000000 -2.309062 0.000000 0.000000 2.309062 0.000000 0.000000 -0.000000 0.000000 0.000000 -0.000000 90.000000 0.000000 -2.309062 0.000000 0.000000 2.309062 0.000000 0.000000 8.520406 0.000000 0.000000 1.905762 0.000000 -0.000000 -4.658285 0.000000 0.000000 -0.000000 0.000000 0.000000 8.520406 0.000000 0.000000 1.905762 0.000000 -0.000000 -4.658285 0.000000 0.000000 -0.000000 0.000000
-38.872040 53.177910 -4.904574 -176.376216 -15.392499 -2.045838 0.825611 15.447362 0.822799 0.119404 1.521535 0.082041 0.140474 2.504031 0.139766 0.871273 13.882806 0.867684 2.435225 18.178612 -2.674174 3.203253 -6.485714 -3.402873 0.870601 -2.549864 2.664706 2.817035 -17.060156 -5.264706 -112.651948 -76.652690 143.361127 -7.905197 -26.791906 -15.770852 -6.896683 -2.514507 1.177048 1.709353 -7.475160 8.736751 56.143085 -62.084445 -95.910113 2.846372 -11.769024 10.779860 2.655356 -62.801818 9.196261 -176.815214 86.634087 -178.837553 -13.355071 -22.479757 12.637048 0.032319 -0.089078 0.028209 5.172181 -61.173862 -5.090800 117.329810 78.223414 115.089853 -6.717223 -19.750609 -0.357546 -0.070194 0.018243 -0.029599
-38.877074 53.178454 -4.919597 -176.353029 -15.325796 -2.053816 0.839548 15.411618 0.833014 0.116290 1.500268 0.082709 0.123860 2.481681 0.140378 0.880125 13.788465 0.870314 2.353202 18.165788 -2.647190 3.108399 -6.504011 -3.353986 0.829644 -2.626920 2.654364 2.902997 -16.794706 -5.359069 -112.455195 -76.435520 143.418038 -7.957518 -27.067396 -15.766258 -6.858030 -2.556604 1.223132 1.680317 -7.356648 8.684473 56.177535 -62.063805 -96.038584 2.883118 -12.074644 10.784837 2.755345 -62.871745 9.132216 -176.369548 86.620193 -178.324291 -13.607760 -22.461943 12.680259 0.021613 -0.080089 0.044555 5.147268 -61.236432 -5.099662 117.374140 78.219045 115.138846 -6.728203 -19.758418 -0.357083 -0.055244 0.012734 -0.030728
-38.883856 53.175731 -4.926920 -176.324974 -15.184799 -2.052966 0.871373 15.332074 0.839771 0.080422 1.451053 0.082250 0.112828 2.456608 0.141549 0.882427 13.700895 0.871764 2.273476 18.146081 -2.624162 3.017091 -6.529636 -3.309851 0.798896 -2.708064 2.647888 2.985918 -16.528870 -5.450980 -112.217230 -76.242364 143.443968 -7.996013 -27.344469 -15.778789 -6.818321 -2.601182 1.266009 1.608412 -7.277549 8.690865 56.231598 -61.984051 -96.150468 2.936744 -12.408908 10.768207 2.889900 -63.018347 8.987419 -176.633026 86.603644 -178.545912 -13.650972 -22.463433 12.695953 0.022913 -0.079853 0.049788 5.119912 -61.365148 -5.130937 117.362104 78.210682 115.115508 -6.724650 -19.791931 -0.358498 -0.056621 0.036449 -0.031580
-38.892086 53.172784 -4.937583 -176.312226 -15.045061 -2.043026 0.868410 15.217217 0.828538 0.083254 1.441819 0.082042 0.118004 2.423651 0.139636 0.871455 13.624014 0.876830 2.195376 18.118221 -2.604063 2.928272 -6.564083 -3.269239 0.772591 -2.789422 2.642127 3.076883 -16.252625 -5.557434 -112.017895 -76.060385 143.507616 -8.019954 -27.619884 -15.806325 -6.781586 -2.647245 1.303486 1.533013 -7.175323 8.690237 56.275729 -61.929197 -96.208390 3.015808 -12.783637 10.667598 2.985912 -63.158163 8.859935 -177.490430 86.581820 -179.406658 -13.572161 -22.480537 12.690491 0.030572 -0.087693 0.050764 5.106631 -61.480712 -5.167949 117.304350 78.194806 115.042915 -6.723255 -19.846261 -0.363574 -0.060626 0.074955 -0.031495
-38.896708 53.169977 -4.952399 -176.300231 -14.916007 -2.057741 0.860221 15.096414 0.840098 0.093044 1.453437 0.081704 0.121040 2.385799 0.139861 0.863948 13.554927 0.878676 2.119809 18.081762 -2.585320 2.842504 -6.607703 -3.230654 0.747725 -2.868196 2.638855 3.169937 -15.969895 -5.676278 -111.889378 -75.897334 143.644408 -8.025814 -27.895396 -15.849128 -6.749710 -2.696843 1.334281 1.463570 -7.084480 8.708211 56.395225 -61.868788 -96.416750 3.096746 -13.133449 10.610320 3.038748 -63.285328 8.798927 -178.060645 86.561354 -179.970640 -13.571823 -22.486876 12.698262 0.033723 -0.093236 0.055720 5.084395 -61.607189 -5.167894 117.366924 78.184879 115.109666 -6.739436 -19.867026 -0.364804 -0.043095 0.076754 -0.030020
-38.902036 53.167643 -4.972553 -176.311247 -14.812758 -2.065952 0.886466 15.032185 0.854240 0.089465 1.438442 0.080516 0.132166 2.349509 0.137906 0.846202 13.524904 0.883083 2.052525 18.000608 -2.570977 2.761908 -6.661759 -3.192825 0.727681 -2.980557 2.640475 3.262130 -15.683688 -5.809410 -111.822372 -75.757937 143.845676 -8.016779 -28.175833 -15.899303 -6.717930 -2.786701 1.361104 1.406890 -7.007316 8.746777 56.542326 -61.808358 -96.672026 3.168206 -13.457736 10.540878 3.190695 -63.394748 8.689413 -178.094394 86.542158 -179.948150 -13.684680 -22.479379 12.725807 0.031607 -0.092831 0.064909 5.073665 -61.700488 -5.167199 117.488594 78.172775 115.242523 -6.746809 -19.913658 -0.374190 -0.023561 0.085337 -0.027742
-38.911353 53.163959 -4.990896 -176.306444 -14.695140 -2.055331 0.886358 14.956109 0.843020 0.089102 1.426978 0.078143 0.126471 2.319702 0.139231 0.845318 13.485069 0.883986 1.990772 17.921514 -2.558761 2.686828 -6.727670 -3.154591 0.707539 -3.080431 2.649388 3.352400 -15.396220 -5.956880 -111.769472 -75.639799 144.066341 -7.994562 -28.458652 -15.946934 -6.691678 -2.868969 1.380569 1.367425 -6.947321 8.802227 56.682102 -61.764612 -96.922465 3.229332 -13.757749 10.449390 3.368276 -63.532256 8.616854 -176.662239 86.524331 -178.383021 -14.370594 -22.402521 12.830172 0.003404 -0.067962 0.095105 5.086721 -61.807026 -5.212624 117.546192 78.165131 115.300918 -6.748495 -19.943076 -0.384301 -0.023161 0.098285 -0.017572
-38.921101 53.159817 -5.009871 -176.302105 -14.580752 -2.043846 0.887869 14.888565 0.829391 0.088011 1.415479 0.076943 0.120910 2.287222 0.140688 0.850425 13.421369 0.879224 1.930457 17.868707 -2.540234 2.616515 -6.803174 -3.116536 0.686298 -3.143894 2.668828 3.436820 -15.109068 -6.114007 -111.692813 -75.538314 144.267788 -7.963867 -28.736102 -15.986449 -6.679093 -2.919283 1.398587 1.342786 -6.908398 8.871939 56.810111 -61.739555 -97.174853 3.287630 -14.037192 10.353702 3.537167 -63.663585 8.532651 -175.374983 86.502995 -176.987445 -14.876848 -22.345529 12.906879 -0.018317 -0.053551 0.110807 5.095159 -61.911325 -5.256800 117.608127 78.154315 115.360506 -6.745296 -19.971299 -0.394741 -0.014871 0.103978 -0.012541
-38.929033 53.155044 -5.028019 -176.292337 -14.462200 -2.045490 0.892037 14.845410 0.827375 0.084317 1.380909 0.077957 0.117299 2.258102 0.138346 0.853209 13.362786 0.873909 1.876946 17.808580 -2.519243 2.550825 -6.883881 -3.080605 0.671707 -3.207670 2.692528 3.515301 -14.820710 -6.278579 -111.561886 -75.451864 144.414498 -7.940531 -29.004471 -16.005689 -6.674726 -2.974423 1.417384 1.327645 -6.890348 8.955910 56.911412 -61.728464 -97.404048 3.356018 -14.314502 10.250634 3.766312 -63.780666 8.275902 -175.769709 86.464314 -177.395670 -14.343345 -22.413821 12.869411 0.005275 -0.082068 0.080833 5.072328 -62.023689 -5.277417 117.645107 78.137766 115.392168 -6.737477 -19.992957 -0.398976 -0.014645 0.108277 -0.015877
-38.939401 53.149258 -5.043588 -176.282284 -14.332723 -2.032151 0.880968 14.743929 0.809850 0.090374 1.399058 0.076693 0.118082 2.232498 0.135747 0.866619 13.288415 0.862536 1.818150 17.764037 -2.487833 2.490818 -6.968591 -3.047977 0.642438 -3.250347 2.725930 3.594074 -14.531651 -6.449028 -111.352579 -75.380008 144.477316 -7.935653 -29.259656 -15.993630 -6.695693 -2.967716 1.438318 1.320366 -6.935290 9.054462 56.989163 -61.728655 -97.605827 3.430014 -14.595755 10.147095 3.832747 -63.904385 8.144041 -176.391644 86.426404 -178.075994 -13.866344 -22.474779 12.806097 0.023962 -0.104402 0.058680 5.072505 -62.145634 -5.325978 117.628334 78.119722 115.361748 -6.739393 -19.993725 -0.388924 -0.020920 0.112991 -0.023415
-38.948949 53.143939 -5.061518 -176.276959 -14.224294 -2.022930 0.893330 14.737515 0.799959 0.080016 1.346093 0.076536 0.120082 2.210203 0.136362 0.857766 13.255828 0.864031 1.796555 17.723194 -2.481754 2.423887 -7.099770 -3.013084 0.633188 -3.325190 2.738605 3.676223 -14.243447 -6.620967 -111.057233 -75.324371 144.449248 -7.943965 -29.500406 -15.958958 -6.694902 -3.009376 1.444512 1.307508 -6.990103 9.159335 57.040315 -61.742135 -97.765164 3.500040 -14.886865 10.038700 3.962203 -64.023031 8.063840 -175.468762 86.399291 -177.091083 -14.012614 -22.466237 12.825712 0.012826 -0.090085 0.063732 5.055467 -62.247104 -5.357425 117.666376 78.102933 115.394779 -6.726305 -20.017238 -0.404632 -0.014344 0.117457 -0.023308
-38.954157 53.139290 -5.081863 -176.283971 -14.138805 -2.035929 0.915407 14.725589 0.812153 0.076975 1.322571 0.076330 0.130804 2.230522 0.129878 0.854558 13.175376 0.869977 1.751019 17.627828 -2.465954 2.397316 -7.168707 -2.988277 0.612884 -3.369433 2.756124 3.758329 -13.968838 -6.790029 -110.673976 -75.288294 144.330149 -7.949946 -29.726182 -15.923082 -6.710602 -3.082628 1.457056 1.290206 -7.016062 9.269274 57.059182 -61.766131 -97.871311 3.561066 -15.184890 9.918233 4.129193 -64.116453 7.960056 -174.877511 86.375588 -176.431773 -13.985680 -22.482753 12.827741 0.012214 -0.080214 0.057648 4.988543 -62.329492 -5.325442 117.785718 78.086513 115.522021 -6.706226 -20.059534 -0.440085 -0.000807 0.131663 -0.015605
-38.972474 53.132401 -5.093991 -176.264225 -14.018067 -1.971541 0.878824 14.636192 0.737310 0.078470 1.331196 0.074420 0.128718 2.211165 0.130686 0.857058 13.162033 0.847744 1.730877 17.524973 -2.430227 2.385957 -7.237302 -2.966700 0.603928 -3.392189 2.786326 3.841860 -13.720118 -6.954687 -110.204174 -75.275164 144.114295 -7.944556 -29.935378 -15.891651 -6.720802 -3.162912 1.486735 1.263738 -7.052060 9.383856 57.052974 -61.793057 -97.937940 3.612467 -15.466158 9.786322 4.329183 -64.238508 7.704532 -175.259667 86.333112 -176.828283 -13.717341 -22.542212 12.798999 0.024776 -0.076321 0.040821 5.002728 -62.438294 -5.454830 117.700855 78.038993 115.393514 -6.663469 -20.104869 -0.438713 -0.042935 0.178303 -0.037453
-38.977108 53.126860 -5.109507 -176.257811 -13.927916 -1.983944 0.876501 14.575401 0.745489 0.077913 1.349868 0.073712 0.128231 2.182280 0.130442 0.850673 13.151131 0.844432 1.731778 17.480045 -2.419739 2.386761 -7.356316 -2.942872 0.593300 -3.456026 2.802577 3.948321 -13.421966 -7.124958 -109.654507 -75.284947 143.798654 -7.930961 -30.125335 -15.862333 -6.730675 -3.234556 1.490801 1.232343 -7.105483 9.500927 57.028538 -61.820793 -97.970384 3.657457 -15.702606 9.638856 4.388188 -64.323900 7.632793 -175.676023 86.312955 -177.252809 -13.451107 -22.597571 12.768580 0.034509 -0.072293 0.024230 4.962238 -62.529283 -5.442660 117.757670 78.022313 115.454114 -6.678893 -20.120880 -0.434118 -0.030246 0.190437 -0.038115
-38.980862 53.121577 -5.124661 -176.250685 -13.851224 -1.998771 0.874976 14.552073 0.757638 0.075412 1.343827 0.072106 0.128974 2.170506 0.131005 0.846094 13.121157 0.843727 1.733965 17.439119 -2.411401 2.423076 -7.467976 -2.920222 0.555781 -3.523092 2.823607 4.093365 -13.108147 -7.304173 -109.014070 -75.316261 143.369196 -7.912942 -30.293302 -15.838551 -6.782164 -3.324584 1.487179 1.222292 -7.140104 9.618805 56.981976 -61.844474 -97.961889 3.696051 -15.872479 9.473233 4.449014 -64.397191 7.581885 -175.780686 86.293616 -177.354065 -13.320545 -22.636162 12.769235 0.036923 -0.062148 0.014335 4.915112 -62.607402 -5.425047 117.814532 78.005709 115.519359 -6.688840 -20.139738 -0.443702 -0.013247 0.197032 -0.034634
